<svg width="220" height="220" viewBox="0 0 220 220" fill="none" xmlns="http://www.w3.org/2000/svg">
<g filter="url(#filter0_f_221_464)">
<circle cx="109.502" cy="110.498" r="29.5024" fill="#3F3AED" fill-opacity="0.8"/>
</g>
<path fill-rule="evenodd" clip-rule="evenodd" d="M115.264 109.843H120.201C120.52 109.843 120.779 109.583 120.779 109.263C120.779 108.943 120.52 108.684 120.201 108.684H115.264C114.945 108.684 114.687 108.943 114.687 109.263C114.687 109.583 114.945 109.843 115.264 109.843Z" fill="#1E1E1E"/>
<path fill-rule="evenodd" clip-rule="evenodd" d="M115.264 113.267H124.839C125.157 113.267 125.416 113.007 125.416 112.687C125.416 112.368 125.157 112.108 124.839 112.108H115.264C114.945 112.108 114.687 112.368 114.687 112.687C114.687 113.007 114.945 113.267 115.264 113.267Z" fill="#1E1E1E"/>
<path fill-rule="evenodd" clip-rule="evenodd" d="M120.855 116.691H124.839C125.157 116.691 125.416 116.431 125.416 116.111C125.416 115.791 125.157 115.531 124.839 115.531H120.855C120.536 115.531 120.277 115.791 120.277 116.111C120.277 116.431 120.536 116.691 120.855 116.691ZM115.264 116.691H118.491C118.809 116.691 119.068 116.431 119.068 116.111C119.068 115.791 118.809 115.531 118.491 115.531H115.264C114.945 115.531 114.687 115.791 114.687 116.111C114.687 116.431 114.945 116.691 115.264 116.691Z" fill="#1E1E1E"/>
<path fill-rule="evenodd" clip-rule="evenodd" d="M99.6186 109.671L96.9143 112.385C96.6887 112.612 96.6887 112.979 96.9143 113.205L99.4697 115.77C99.695 115.996 100.061 115.996 100.286 115.77C100.511 115.544 100.511 115.176 100.286 114.95L98.1393 112.795L100.436 110.49C100.661 110.264 100.661 109.897 100.436 109.671C100.21 109.444 99.8443 109.444 99.6187 109.671H99.6186Z" fill="#1E1E1E"/>
<path fill-rule="evenodd" clip-rule="evenodd" d="M107.874 110.49L110.17 112.795L108.024 114.95C107.798 115.176 107.798 115.543 108.024 115.77C108.249 115.996 108.615 115.996 108.84 115.77L111.395 113.205C111.621 112.979 111.621 112.612 111.395 112.385L108.691 109.671C108.465 109.444 108.1 109.444 107.874 109.671C107.649 109.897 107.649 110.264 107.874 110.49H107.874Z" fill="#1E1E1E"/>
<path fill-rule="evenodd" clip-rule="evenodd" d="M102.559 119.115L106.611 107.3C106.714 106.998 106.554 106.668 106.253 106.563C105.951 106.459 105.622 106.621 105.518 106.923L101.467 118.737C101.363 119.04 101.524 119.37 101.825 119.474C102.127 119.578 102.455 119.417 102.559 119.115L102.559 119.115Z" fill="#1E1E1E"/>
<path fill-rule="evenodd" clip-rule="evenodd" d="M128.437 98.4089C128.437 97.4484 127.661 96.67 126.705 96.67H93.5985C92.6419 96.67 91.8662 97.4484 91.8662 98.4089V122.484C91.8662 123.444 92.6419 124.223 93.5985 124.223H126.705C127.661 124.223 128.437 123.444 128.437 122.484V98.4089ZM127.282 102.571V122.484C127.282 122.804 127.023 123.063 126.705 123.063H93.5985C93.2799 123.063 93.0211 122.804 93.0211 122.484V102.571H127.282ZM121.431 99.0411H120.192C119.873 99.0411 119.614 99.3009 119.614 99.6207C119.614 99.9406 119.873 100.2 120.192 100.2H121.431C121.75 100.2 122.009 99.9406 122.009 99.6207C122.009 99.3009 121.75 99.0411 121.431 99.0411ZM125.453 99.0411H124.213C123.895 99.0411 123.636 99.3009 123.636 99.6207C123.636 99.9406 123.895 100.2 124.213 100.2H125.453C125.772 100.2 126.03 99.9406 126.03 99.6207C126.03 99.3009 125.772 99.0411 125.453 99.0411Z" fill="#1E1E1E"/>
<defs>
<filter id="filter0_f_221_464" x="0" y="0.995117" width="219.005" height="219.005" filterUnits="userSpaceOnUse" color-interpolation-filters="sRGB">
<feFlood flood-opacity="0" result="BackgroundImageFix"/>
<feBlend mode="normal" in="SourceGraphic" in2="BackgroundImageFix" result="shape"/>
<feGaussianBlur stdDeviation="40" result="effect1_foregroundBlur_221_464"/>
</filter>
</defs>
</svg>
