<svg width="398" height="425" viewBox="0 0 398 425" fill="none" xmlns="http://www.w3.org/2000/svg">
<g filter="url(#filter0_f_171_716)">
<circle cx="186" cy="212.217" r="112" fill="#2A285C" fill-opacity="0.5"/>
</g>
<g clip-path="url(#clip0_171_716)">
<path d="M222.495 142.673C222.233 142.334 221.67 142.445 221.331 142.706L138.336 198.642C137.997 198.904 137.847 199.129 137.92 199.505C137.994 199.88 138.256 200.219 138.668 200.333L160.752 206.529L163.979 230.875C164.053 231.251 164.315 231.59 164.727 231.704C164.915 231.667 164.952 231.855 165.139 231.818C165.327 231.781 165.515 231.744 165.666 231.519L178.964 214.853L196.798 224.227C197.022 224.378 197.21 224.341 197.398 224.304L197.586 224.267C197.773 224.23 198.112 223.968 198.038 223.592L222.221 145.262L222.714 143.799C222.828 143.387 222.717 142.823 222.492 142.672L222.495 142.673ZM216.361 148.172L167.583 206.555L141.15 199.067L216.361 148.172ZM165.639 228.402L162.627 207.137L167.577 208.505L177.168 213.645L165.639 228.402ZM196.506 221.747L169.494 207.347L219.552 147.545L196.506 221.747Z" fill="#FBFBFB" fill-opacity="0.9"/>
<path d="M110.989 308.902L156.201 241.501L157.79 242.568L112.578 309.97L110.989 308.902Z" fill="#FBFBFB"/>
<path d="M160.324 267.115L177.705 241.204L179.294 242.272L161.913 268.183L160.324 267.115Z" fill="#FBFBFB"/>
<path d="M131.782 246.316L148.416 221.519L150.004 222.586L133.371 247.384L131.782 246.316Z" fill="#FBFBFB"/>
</g>
<path d="M138.785 119.469C137.787 117.831 136.219 116.739 134.509 116.193C133.084 115.783 131.659 115.647 130.234 115.919C128.808 116.193 127.526 116.875 126.529 117.967C125.531 119.195 124.676 120.697 124.533 122.745L124.533 123.701L123.678 123.019C121.682 121.517 119.545 120.834 117.55 120.698C116.41 120.698 115.128 120.835 114.13 121.244C113.132 121.654 112.135 122.336 111.565 123.156C110.709 124.111 110.283 125.34 110.139 126.705L110.139 127.115L109.712 127.115C107.859 127.388 106.292 128.071 105.294 129.163C104.154 130.255 103.584 131.62 103.584 133.121C103.584 134.759 104.296 136.261 105.579 137.353C106.862 138.445 108.715 139.128 110.709 139.128C110.995 139.128 111.279 139.128 111.565 138.991C111.993 138.991 112.277 138.991 112.563 138.855L112.99 138.855L113.133 139.265C113.418 140.084 113.988 140.903 114.558 141.585C115.556 142.814 116.838 143.769 118.406 144.315C119.973 144.861 121.683 144.998 123.536 144.452C124.676 144.042 125.673 143.496 126.813 142.677L127.383 142.131L127.669 142.951C128.096 145.271 129.664 146.773 131.516 147.729C132.799 148.411 134.224 148.685 135.649 148.957C137.216 149.093 138.641 148.957 140.066 148.684C142.632 148.274 144.768 147.046 145.624 145.271L145.909 144.862L146.479 145.135C146.907 145.271 149.472 146.091 152.465 146.227C155.457 146.5 158.878 146.091 161.015 144.179C161.3 143.77 161.727 143.36 162.012 142.814L162.155 142.404L162.582 142.54C163.295 142.677 164.008 142.814 164.72 142.814C166.43 142.814 167.998 142.268 169.28 141.312C170.562 140.492 171.702 139.128 172.13 137.626C172.272 136.944 172.415 136.26 172.415 135.578L172.415 135.442C172.415 133.53 171.56 131.756 170.135 130.391C168.71 129.163 166.858 128.343 164.72 128.343L164.15 128.343L164.15 127.797C164.15 124.521 163.01 121.791 161.3 119.607C159.59 117.559 157.31 116.195 154.887 115.375C152.465 114.556 149.615 114.283 147.049 114.965C144.342 115.511 141.634 117.013 139.782 119.47L139.212 120.016L138.784 119.47L138.785 119.469ZM134.937 115.237C136.504 115.783 138.072 116.739 139.354 118.241C141.35 115.92 144.057 114.555 146.907 113.872C149.615 113.326 152.607 113.463 155.173 114.282C157.88 115.238 160.303 116.74 162.156 118.924C164.008 121.108 165.148 123.974 165.148 127.251C167.428 127.388 169.423 128.343 170.848 129.709C172.416 131.21 173.413 133.258 173.555 135.442L173.555 135.579C173.555 136.398 173.413 137.081 173.128 137.899C172.558 139.674 171.418 141.175 169.992 142.131C168.425 143.223 166.572 143.905 164.72 143.905C164.008 143.905 163.438 143.769 162.725 143.632C162.439 144.042 162.155 144.452 161.727 144.86C159.447 147.181 155.742 147.454 152.464 147.318C149.756 147.044 147.334 146.498 146.478 146.226C145.196 148 142.916 149.229 140.351 149.775C138.783 150.049 137.215 150.049 135.649 149.912C133.939 149.775 132.513 149.366 131.089 148.683C129.093 147.728 127.527 146.09 126.813 144.042C125.816 144.588 124.818 145.134 123.963 145.407C121.826 146.09 119.831 145.953 117.978 145.407C116.268 144.725 114.843 143.633 113.703 142.267C113.133 141.585 112.705 140.766 112.277 139.947C112.135 140.083 111.992 140.083 111.707 140.083L110.709 140.083C108.43 140.083 106.434 139.401 104.867 138.172C103.441 136.806 102.444 135.032 102.444 133.121C102.444 131.347 103.157 129.709 104.44 128.48C105.722 127.388 107.29 126.432 109.142 126.159C109.284 124.794 109.854 123.566 110.71 122.473C111.422 121.517 112.42 120.835 113.702 120.289C114.842 119.879 116.267 119.607 117.692 119.743C119.544 119.743 121.682 120.425 123.535 121.791C123.963 119.879 124.675 118.379 125.672 117.286C126.812 116.058 128.38 115.239 129.948 114.966C131.516 114.556 133.226 114.693 134.936 115.24L134.937 115.237Z" fill="#FBFBFB"/>
<path d="M237.367 117.412C237.548 116.719 238.094 116.025 238.64 115.331C239.548 114.117 241.002 113.251 242.457 112.903C243.911 112.383 245.729 112.383 247.183 112.903C247.91 113.076 248.637 113.251 249.183 113.77C250.818 111.516 253 109.955 255.363 109.435C257.182 108.915 259.363 108.915 261.18 109.435C263.18 109.956 264.816 110.823 266.27 112.21C268.088 113.77 269.178 116.025 269.36 118.8C272.086 118.973 273.904 120.534 274.631 122.441C275.176 123.482 275.358 124.695 275.176 125.909C274.995 127.123 274.449 128.337 273.722 129.377C272.268 130.937 270.268 131.978 267.36 131.285C266.996 131.805 266.633 132.326 266.269 132.672C264.996 133.886 263.36 134.753 261.725 134.926C260.089 135.099 258.452 134.926 256.816 134.232C256.452 134.059 255.908 133.712 255.544 133.366C254.635 134.58 253.544 135.446 252.271 136.14C250.817 136.66 249.182 136.834 247.727 136.66C246.092 136.487 244.638 135.967 243.546 134.926C242.455 134.059 241.547 133.018 241.184 131.631C237.184 133.539 233.913 133.192 231.549 131.631C230.095 130.764 229.186 129.377 228.641 127.643C228.095 126.082 228.277 124.348 228.822 122.787C229.913 120.186 232.639 117.932 237.366 117.412L237.367 117.412ZM239.548 116.198C239.184 116.719 238.64 117.412 238.457 118.279L238.275 118.799H237.911C233.549 118.973 231.186 120.88 230.095 123.308C229.549 124.522 229.549 126.083 229.913 127.297C230.459 128.684 231.186 129.898 232.459 130.592C234.458 131.806 237.367 132.152 241.184 130.071L242.092 129.551L242.274 130.417C242.638 131.978 243.365 133.192 244.455 133.886C245.364 134.752 246.636 135.273 247.909 135.446C249.181 135.619 250.454 135.446 251.726 134.925C252.998 134.405 254.089 133.365 254.634 131.978L255.18 131.284L255.907 131.805C256.271 132.325 256.815 132.672 257.542 133.019C258.815 133.713 260.269 133.886 261.542 133.539C262.996 133.366 264.269 132.846 265.178 131.805C265.723 131.458 266.086 130.764 266.45 130.244L266.632 129.724L267.177 129.897C269.723 130.591 271.54 129.897 272.631 128.51C273.177 127.816 273.54 126.775 273.722 125.736C273.904 124.869 273.722 123.828 273.358 122.961C272.631 121.401 271.177 120.187 268.632 120.187H267.905V119.493C267.905 116.719 266.996 114.638 265.359 113.077C264.087 111.863 262.451 111.17 260.815 110.649C259.18 110.302 257.361 110.302 255.726 110.649C253.363 111.343 251.363 112.73 250.09 114.984L249.545 115.678L248.999 115.157C248.272 114.637 247.545 114.29 246.818 114.116C245.545 113.769 244.091 113.769 242.818 114.116C241.546 114.464 240.456 115.157 239.546 116.197L239.548 116.198Z" fill="#FBFBFB"/>
<path d="M256.851 246.766C256.045 245.249 254.971 244.238 253.897 243.227C252.018 241.709 249.87 240.698 247.454 240.446C245.039 240.194 242.621 240.446 240.474 241.457C239.132 241.963 237.788 242.974 236.714 243.985L235.909 244.996L235.103 243.985C232.149 240.193 227.854 238.171 223.826 237.919C220.605 237.667 217.383 238.171 214.43 239.183C211.744 240.446 209.06 242.216 207.181 244.744C204.765 247.777 203.421 252.074 204.495 256.877V257.888H203.689C198.856 258.647 196.44 261.174 195.904 264.207C195.367 265.724 195.367 267.746 196.172 269.515C196.71 271.032 197.514 272.8 198.858 273.811C201.274 276.086 204.765 276.844 209.06 275.075L209.866 274.568L210.404 275.327C211.21 276.338 212.015 277.097 213.089 277.856C214.969 279.373 217.652 280.13 220.07 280.13C222.486 280.382 224.903 279.624 227.05 278.108C227.856 277.602 228.662 276.844 229.466 275.833L230.272 274.822L231.078 275.833C232.957 278.362 235.373 279.625 238.058 280.13C240.474 280.636 243.159 280.636 245.575 279.878C247.992 279.119 250.139 278.108 251.75 276.338C253.362 274.568 254.436 272.546 254.166 270.019V267.997L255.778 269.008C257.926 270.272 260.341 270.778 262.489 270.272C264.1 270.019 265.71 269.513 267.322 268.502C268.664 267.491 270.007 266.227 271.081 264.71C272.693 262.435 273.497 259.655 272.961 256.369C272.961 256.117 272.961 255.61 272.693 255.358C271.887 252.577 270.007 250.303 267.592 248.786C265.176 247.268 262.222 246.511 259.001 247.016C258.733 247.016 258.195 247.016 257.927 247.268L257.121 247.521L256.853 246.762L256.851 246.766ZM255.239 241.963C256.313 242.722 257.387 243.986 258.193 245.249L258.73 244.997C262.22 244.49 265.711 245.249 268.663 247.019C271.617 248.789 273.764 251.569 274.838 254.855C274.838 255.361 274.838 255.866 275.106 256.118C275.644 259.658 274.568 263.196 272.69 265.977C271.617 267.494 270.005 269.01 268.395 270.021C266.783 271.285 264.636 272.043 262.758 272.296C260.61 272.548 258.462 272.296 256.315 271.537C256.047 273.811 254.703 276.087 253.093 277.603C251.213 279.625 248.798 280.889 246.112 281.648C243.427 282.406 240.475 282.659 237.79 282.154C234.836 281.648 232.152 280.132 230.273 278.11C229.735 278.616 228.931 279.373 228.125 279.879C225.709 281.397 222.756 282.154 220.07 282.154C217.117 282.154 214.163 281.143 211.748 279.373C210.942 278.867 209.868 277.856 209.062 277.098C204.499 278.868 200.472 277.857 197.518 275.329C195.906 273.811 194.832 272.043 194.028 270.021C193.491 267.999 193.222 265.724 193.76 263.702C194.566 260.163 197.25 257.13 202.351 256.118C201.545 251.316 202.889 247.019 205.572 243.479C207.72 240.951 210.405 238.929 213.627 237.413C216.849 236.149 220.338 235.643 223.829 235.895C228.393 236.402 232.688 238.424 236.179 241.962C237.253 240.951 238.327 240.192 239.401 239.687C242.086 238.676 245.038 238.17 247.724 238.424C250.409 238.93 253.093 239.941 255.241 241.963L255.239 241.963Z" fill="#FBFBFB"/>
<defs>
<filter id="filter0_f_171_716" x="-26" y="0.217041" width="424" height="424" filterUnits="userSpaceOnUse" color-interpolation-filters="sRGB">
<feFlood flood-opacity="0" result="BackgroundImageFix"/>
<feBlend mode="normal" in="SourceGraphic" in2="BackgroundImageFix" result="shape"/>
<feGaussianBlur stdDeviation="50" result="effect1_foregroundBlur_171_716"/>
</filter>
<clipPath id="clip0_171_716">
<rect width="157.117" height="172.668" fill="white" transform="translate(75.6841 160.25) rotate(-11.1243)"/>
</clipPath>
</defs>
</svg>
