<svg width="28" height="28" viewBox="0 0 28 28" fill="none" xmlns="http://www.w3.org/2000/svg">
<path d="M5.83301 5.83334H20.9997C21.9279 5.83334 22.8182 6.20209 23.4745 6.85847C24.1309 7.51485 24.4997 8.40509 24.4997 9.33334V19.8333C24.4997 20.7616 24.1309 21.6518 23.4745 22.3082C22.8182 22.9646 21.9279 23.3333 20.9997 23.3333H5.83301C4.90475 23.3333 4.01451 22.9646 3.35813 22.3082C2.70176 21.6518 2.33301 20.7616 2.33301 19.8333V9.33334C2.33301 8.40509 2.70176 7.51485 3.35813 6.85847C4.01451 6.20209 4.90475 5.83334 5.83301 5.83334ZM5.83301 7.00001C5.24967 7.00001 4.73634 7.19834 4.33967 7.54834L13.4163 13.4167L22.493 7.54834C22.0963 7.19834 21.583 7.00001 20.9997 7.00001H5.83301ZM13.4163 14.8283L3.65134 8.49334C3.55801 8.75001 3.49967 9.04168 3.49967 9.33334V19.8333C3.49967 20.4522 3.74551 21.0457 4.18309 21.4833C4.62068 21.9208 5.21417 22.1667 5.83301 22.1667H20.9997C21.6185 22.1667 22.212 21.9208 22.6496 21.4833C23.0872 21.0457 23.333 20.4522 23.333 19.8333V9.33334C23.333 9.04168 23.2747 8.75001 23.1813 8.49334L13.4163 14.8283Z" fill="#6B6B6B"/>
</svg>
