<svg width="218" height="218" viewBox="0 0 218 218" fill="none" xmlns="http://www.w3.org/2000/svg">
<g filter="url(#filter0_f_221_475)">
<circle cx="109" cy="109" r="28.9998" fill="#3F3AED" fill-opacity="0.8"/>
</g>
<path d="M103.289 98.7603L107.863 84.2606C107.999 83.8286 108.458 83.5898 108.887 83.7272C109.317 83.8645 109.554 84.3261 109.418 84.758L104.844 99.2569C104.707 99.6888 104.248 99.9276 103.819 99.7903C103.39 99.6529 103.152 99.1917 103.289 98.7598V98.7603Z" fill="#1E1E1E"/>
<path d="M100.43 97.4061L96.0848 92.906V92.9056C95.7909 92.5975 95.627 92.1872 95.627 91.7601C95.627 91.3333 95.7909 90.923 96.0848 90.6145L100.43 86.1137C100.746 85.8041 101.25 85.8038 101.567 86.1133C101.884 86.4229 101.898 86.9295 101.6 87.2566L97.2548 91.7567L101.6 96.2627C101.898 96.5902 101.884 97.0969 101.567 97.4064C101.25 97.7159 100.746 97.7156 100.43 97.406V97.4061Z" fill="#1E1E1E"/>
<path d="M111.104 96.263L115.449 91.7629L111.104 87.2569C110.805 86.9297 110.819 86.4231 111.136 86.1136C111.453 85.804 111.957 85.8044 112.274 86.1139L116.619 90.6148C116.913 90.9232 117.076 91.3335 117.076 91.7603C117.076 92.1875 116.913 92.5978 116.619 92.9059L112.274 97.406V97.4063C111.957 97.7159 111.453 97.7163 111.136 97.4067C110.819 97.0971 110.805 96.5905 111.104 96.263V96.263Z" fill="#1E1E1E"/>
<path d="M115.573 109.84C115.573 110.338 115.275 110.786 114.817 110.977C114.36 111.167 113.833 111.062 113.483 110.71C113.133 110.358 113.029 109.829 113.218 109.369C113.408 108.909 113.854 108.609 114.349 108.609C115.025 108.609 115.573 109.16 115.573 109.84L115.573 109.84Z" fill="#1E1E1E"/>
<path d="M115.573 114.898C115.573 115.395 115.275 115.845 114.817 116.035C114.36 116.226 113.833 116.12 113.483 115.768C113.133 115.416 113.029 114.887 113.218 114.427C113.408 113.967 113.854 113.667 114.349 113.667C115.025 113.667 115.573 114.218 115.573 114.898L115.573 114.898Z" fill="#1E1E1E"/>
<path d="M113.004 112.368C113.004 112.866 112.706 113.315 112.249 113.505C111.792 113.696 111.265 113.591 110.915 113.239C110.565 112.887 110.46 112.357 110.65 111.897C110.839 111.437 111.286 111.137 111.781 111.137C112.457 111.137 113.004 111.688 113.004 112.368L113.004 112.368Z" fill="#1E1E1E"/>
<path d="M118.143 112.368C118.143 112.866 117.845 113.315 117.388 113.505C116.93 113.696 116.404 113.591 116.054 113.239C115.704 112.887 115.599 112.357 115.789 111.897C115.978 111.437 116.424 111.137 116.919 111.137C117.595 111.137 118.143 111.688 118.143 112.368L118.143 112.368Z" fill="#1E1E1E"/>
<path d="M101.354 113.189H99.1721V115.322C99.1721 115.776 98.8068 116.143 98.3562 116.143C97.9056 116.143 97.5403 115.776 97.5403 115.322V113.189H95.355C94.9044 113.189 94.5391 112.821 94.5391 112.368C94.5391 111.915 94.9044 111.548 95.355 111.548H97.5403V109.414C97.5403 108.961 97.9056 108.594 98.3562 108.594C98.8068 108.594 99.1721 108.961 99.1721 109.414V111.548H101.356C101.806 111.548 102.171 111.916 102.171 112.369C102.17 112.822 101.805 113.189 101.354 113.189H101.354Z" fill="#1E1E1E"/>
<path d="M124.459 128.556C122.827 129.277 120.234 129.078 113.362 122.116C111.479 120.435 108.727 120.766 106.353 120.721C103.967 120.769 101.229 120.438 99.3067 122.154C96.3129 125.19 91.4026 129.96 88.2462 128.558C84.9989 127.122 85.3373 121.115 86.7374 115.972H86.7378C86.8624 115.542 87.3064 115.292 87.7359 115.41C88.1653 115.528 88.4214 115.971 88.3118 116.404C86.8259 121.865 87.0689 126.246 88.9033 127.057C90.4168 127.724 93.5353 125.673 98.1873 120.962C100.641 118.764 103.934 119.128 106.352 119.078C108.737 119.137 112.053 118.755 114.482 120.924C119.171 125.671 122.293 127.718 123.802 127.055C126.22 125.988 125.742 118.721 122.8 111.813C121.189 108.028 118.231 103.81 115.533 103.486C112.279 103.088 111.372 105.953 107.726 105.953H104.979C101.332 105.953 100.432 103.092 97.1711 103.486C94.52 103.804 91.7754 107.778 90.2308 111.084C90.0389 111.495 89.5526 111.671 89.1447 111.478C88.7363 111.285 88.5611 110.796 88.7531 110.385C89.6295 108.511 92.8116 102.356 96.9777 101.857C100.94 101.386 101.938 104.312 104.979 104.312H107.725C110.744 104.312 111.785 101.387 115.726 101.857C120.448 102.422 123.92 110.274 124.303 111.166C127.376 118.388 128.277 126.868 124.46 128.557L124.459 128.556Z" fill="#1E1E1E"/>
<path d="M88.3296 112.688C88.6596 112.688 88.9572 112.888 89.0836 113.195C89.2097 113.501 89.1401 113.854 88.9066 114.089C88.6731 114.324 88.3223 114.394 88.0174 114.267C87.7125 114.14 87.5137 113.84 87.5137 113.509C87.5137 113.055 87.879 112.688 88.3296 112.688Z" fill="#1E1E1E"/>
<path d="M88.6508 124.525C88.6369 123.907 88.6566 123.243 88.708 122.556C88.7426 122.103 89.1356 121.763 89.5866 121.798C90.0372 121.833 90.3745 122.228 90.3399 122.681C90.2918 123.317 90.2739 123.925 90.286 124.487C90.2965 124.941 89.9392 125.318 89.4879 125.328C89.0362 125.339 88.6617 124.98 88.6508 124.525L88.6508 124.525Z" fill="#1E1E1E"/>
<path d="M89.1219 119.48C89.6479 116.602 90.5753 113.814 91.8764 111.197C92.0837 110.794 92.5762 110.637 92.9765 110.845C93.3765 111.054 93.5327 111.549 93.3255 111.952C92.0975 114.427 91.2222 117.065 90.7254 119.786C90.6412 120.231 90.2139 120.524 89.7714 120.439C89.3285 120.354 89.0378 119.925 89.1219 119.48L89.1219 119.48Z" fill="#1E1E1E"/>
<defs>
<filter id="filter0_f_221_475" x="0" y="0" width="218" height="218" filterUnits="userSpaceOnUse" color-interpolation-filters="sRGB">
<feFlood flood-opacity="0" result="BackgroundImageFix"/>
<feBlend mode="normal" in="SourceGraphic" in2="BackgroundImageFix" result="shape"/>
<feGaussianBlur stdDeviation="40" result="effect1_foregroundBlur_221_475"/>
</filter>
</defs>
</svg>
