<svg width="539" height="608" viewBox="0 0 539 608" fill="none" xmlns="http://www.w3.org/2000/svg">
<g filter="url(#filter0_f_202_581)">
<circle cx="286.644" cy="121.51" r="41.5095" fill="#EDDB3A" fill-opacity="0.8"/>
</g>
<g clip-path="url(#clip0_202_581)">
<path d="M282.94 153.327C277.066 153.327 273.964 151.674 273.441 143.294C273.441 142.686 273.363 142.115 273.334 141.555C273.112 137.37 272.975 134.847 270.688 131.638L270.136 130.865C267.334 126.999 264.688 123.249 264.688 118.039L264.689 118.04C264.701 113.122 266.668 108.41 270.158 104.936C273.648 101.461 278.376 99.5073 283.308 99.5023C288.243 99.5098 292.973 101.469 296.462 104.949C299.951 108.43 301.912 113.148 301.917 118.069C301.917 123.278 299.271 126.98 296.48 130.894L295.927 131.667C293.64 134.876 293.504 137.399 293.272 141.584C293.272 142.144 293.214 142.715 293.174 143.324C292.641 151.897 289.414 153.414 283.288 153.347L282.94 153.327ZM283.308 102.372C279.138 102.377 275.14 104.034 272.194 106.977C269.248 109.92 267.594 113.91 267.596 118.068C267.596 122.35 269.874 125.53 272.501 129.212L273.063 129.986C275.825 133.852 275.971 137.051 276.242 141.429C276.242 141.98 276.3 142.55 276.339 143.149C276.785 150.224 278.801 150.505 283.337 150.447C287.873 150.389 289.88 150.225 290.325 143.149C290.325 142.55 290.393 141.98 290.423 141.429C290.655 137.051 290.829 133.881 293.602 129.986L294.154 129.212C296.751 125.53 299.058 122.399 299.058 118.068C299.055 113.915 297.4 109.934 294.457 106.996C291.513 104.059 287.52 102.406 283.356 102.401L283.308 102.372Z" fill="#1E1E1E"/>
<path d="M287.495 142.212H279.014C278.211 142.212 277.561 141.563 277.561 140.762C277.561 139.962 278.211 139.312 279.014 139.312H287.495C288.298 139.312 288.949 139.962 288.949 140.762C288.949 141.563 288.298 142.212 287.495 142.212V142.212Z" fill="#1E1E1E"/>
<path d="M287.059 147.374H279.684C278.88 147.374 278.229 146.725 278.229 145.924C278.229 145.124 278.88 144.474 279.684 144.474H287.059C287.862 144.474 288.513 145.124 288.513 145.924C288.513 146.725 287.862 147.374 287.059 147.374V147.374Z" fill="#1E1E1E"/>
<path d="M283.386 92.1951C282.583 92.1951 281.932 91.5458 281.932 90.7452V83.2546C281.932 82.4541 282.583 81.8047 283.386 81.8047C284.189 81.8047 284.84 82.454 284.84 83.2546V90.7452C284.84 91.5458 284.189 92.1951 283.386 92.1951Z" fill="#1E1E1E"/>
<path d="M283.328 135.756C282.525 135.756 281.874 135.107 281.874 134.306V127.656C281.874 126.856 282.525 126.207 283.328 126.207C284.131 126.207 284.782 126.856 284.782 127.656V134.306C284.782 135.107 284.131 135.756 283.328 135.756Z" fill="#1E1E1E"/>
<path d="M281.389 128.671C280.814 128.68 280.288 128.35 280.047 127.83C279.806 127.309 279.895 126.696 280.275 126.265L282.824 123.481L277.483 123.481L283.812 116.358C284.348 115.757 285.27 115.703 285.872 116.237C286.474 116.771 286.529 117.69 285.993 118.291L283.948 120.562H289.444L282.465 128.198C282.192 128.503 281.8 128.675 281.389 128.671H281.389Z" fill="#1E1E1E"/>
<path d="M301.957 99.0961C301.395 99.0961 300.884 98.7731 300.644 98.2666C300.403 97.7605 300.477 97.1615 300.832 96.7283L304.903 91.7702L304.904 91.7697C305.143 91.4597 305.499 91.2596 305.89 91.2152C306.28 91.1708 306.672 91.2855 306.976 91.5341C307.28 91.7822 307.47 92.1425 307.503 92.5328C307.536 92.9231 307.41 93.3104 307.152 93.6064L303.091 98.5645C302.811 98.9014 302.396 99.0961 301.957 99.0961L301.957 99.0961Z" fill="#1E1E1E"/>
<path d="M310.001 116.523C309.615 116.548 309.235 116.42 308.944 116.166C308.653 115.912 308.476 115.554 308.45 115.169C308.396 114.368 309.004 113.676 309.806 113.623L315.884 112.811C316.687 112.704 317.425 113.267 317.531 114.067C317.638 114.868 317.074 115.604 316.272 115.71L310.194 116.532L310.001 116.523Z" fill="#1E1E1E"/>
<path d="M263.797 99.0961C263.361 99.0986 262.948 98.9029 262.673 98.5645L258.603 93.6064C258.345 93.3104 258.218 92.9231 258.251 92.5328C258.284 92.1425 258.475 91.7822 258.779 91.5341C259.083 91.2856 259.474 91.1708 259.865 91.2152C260.255 91.2596 260.611 91.4597 260.851 91.7697L264.922 96.7278L264.922 96.7283C265.277 97.1615 265.351 97.7605 265.111 98.2666C264.871 98.7731 264.359 99.0961 263.797 99.0961L263.797 99.0961Z" fill="#1E1E1E"/>
<path d="M255.724 116.523H255.53L248.58 115.556C247.778 115.449 247.214 114.713 247.321 113.913C247.427 113.112 248.165 112.55 248.968 112.656L255.918 113.623H255.917C256.721 113.676 257.328 114.369 257.275 115.169C257.221 115.97 256.526 116.576 255.724 116.523L255.724 116.523Z" fill="#1E1E1E"/>
</g>
<g filter="url(#filter1_d_202_581)">
<path fill-rule="evenodd" clip-rule="evenodd" d="M249.84 388.702C249.537 391.839 250.156 394.835 251.629 397.368L252.108 398.193L251.196 398.51C249.535 399.087 247.689 399.368 245.551 399.368C243.35 399.368 241.061 399.063 239.223 398.818L238.045 398.661L238.624 397.645C239.089 396.828 239.175 395.838 239.266 394.79C239.291 394.508 239.316 394.217 239.349 393.929C241.091 378.449 243.294 362.766 245.424 347.601C245.984 343.61 246.564 339.483 247.126 335.424L248.739 335.485C249.173 342.999 249.594 350.64 250.001 358.029C250.18 361.278 250.359 364.528 250.539 367.776C251.183 375.99 250.961 382.641 249.84 388.702M249.182 481.532C251.55 481.532 253.923 481.286 256.235 480.803C263.468 479.294 270.039 475.733 275.631 472.514C275.916 472.353 276.206 472.192 276.503 472.027C278.693 470.809 281.417 469.294 283.124 467.446C284.997 465.419 285.32 463.399 284.139 461.089L283.952 460.724L284.147 460.362C285.37 458.1 285.279 455.3 283.926 453.555L282.789 452.089L284.658 452.286C286.543 452.485 288.443 452.754 290.281 453.014C292.32 453.304 294.428 453.603 296.505 453.803L297.082 453.858L297.215 454.411C297.288 454.719 297.38 454.905 298.02 454.905C298.576 454.905 299.322 454.744 300.112 454.573C301.093 454.36 302.204 454.12 303.276 454.12C303.747 454.12 304.171 454.164 304.572 454.256L304.806 454.31L304.972 454.479C305.078 454.587 305.259 454.654 305.443 454.654C305.583 454.654 305.713 454.615 305.799 454.548L306.061 454.344L306.393 454.381C312.182 455.013 317.174 456.121 321.653 457.77L321.673 457.778L321.77 457.819C323.39 458.514 325.065 459.233 326.59 459.233C327.704 459.233 328.61 458.856 329.439 458.046L329.673 457.818L330.004 457.815C333.357 457.784 334.889 453.897 335.101 451.292L335.128 450.964L335.383 450.751C341.227 445.876 344.677 439.18 345.931 430.282C347.073 422.177 346.196 413.631 345.188 406.34C342.856 387.447 340.424 370.509 334.241 354.445L333.952 353.694L334.722 353.419C337.392 352.465 339.433 351.327 340.961 349.94L341.067 349.844L341.2 349.789C343.39 348.895 344.463 345.594 344.739 344.603L344.761 344.523L344.8 344.45C345.247 343.598 345.35 342.413 345.083 341.198L345.054 341.067L345.071 340.934C345.215 339.781 344.736 338.575 344.229 337.299C343.997 336.716 343.758 336.113 343.583 335.513C342.981 333.797 342.38 332.051 341.799 330.362C340.495 326.573 339.147 322.656 337.71 318.844L337.514 318.323L337.946 317.964C338.685 317.351 338.439 316.628 337.373 314.902C337.121 314.494 336.883 314.108 336.702 313.728C335.337 311.383 333.873 309.131 332.351 307.035L332.32 306.992L332.295 306.945C324.487 292.45 310.637 284.467 293.296 284.467L292.942 284.467L292.747 284.351C289.497 282.408 287.177 279.074 285.654 274.16L285.605 274.003L285.624 273.841C285.676 273.388 285.733 272.794 285.714 272.218C285.664 270.758 285.089 269.456 284.135 268.645C282.326 267.105 279.579 266.976 276.921 266.976L276.539 266.977C273.14 266.987 270.741 267.573 268.987 268.823C266.95 270.276 265.824 272.62 265.545 275.99C265.462 276.999 265.465 278.044 265.468 279.054L265.468 279.336L265.434 279.448C265.19 280.249 264.904 281.019 264.584 281.736L264.254 282.474L263.506 282.141C263.022 281.926 262.408 281.816 261.629 281.803C261.405 281.798 261.186 281.796 260.965 281.796C259.156 281.796 257.222 281.96 255.351 282.118C253.942 282.238 252.484 282.362 251.073 282.417L251.054 282.417C251.054 282.417 250.859 282.416 250.772 282.416C247.343 282.416 244.857 282.952 242.949 284.103C240.894 285.342 239.417 287.331 238.3 290.362C232.309 307.736 229.846 326.45 227.673 342.961C226.441 351.595 226.066 360.446 225.703 369.006C225.32 378.041 224.925 387.384 223.524 396.517L223.413 397.239L222.669 397.191C219.395 396.981 215.857 396.528 212.112 396.049C206.42 395.322 200.536 394.569 194.847 394.569C186.892 394.569 180.861 396.125 176.412 399.325C173.31 402.231 171.705 406.164 171.771 410.705C171.864 417.119 175.278 424.212 180.467 428.772L180.487 428.79C187.046 434.95 199.02 440.293 216.074 444.67C231.757 448.695 247.979 450.882 256.253 451.827L258.301 452.062L256.639 453.256C255.966 453.74 255.352 454.165 254.762 454.558L254.382 454.81L253.965 454.62C252.776 454.078 252.021 453.965 251.596 453.965C251.22 453.965 250.765 454.046 250.74 454.433C250.724 454.687 250.906 455.064 251.289 455.111L253.324 455.364L251.662 456.542C250.552 457.329 248.896 458.277 246.978 459.376C240.703 462.97 231.221 468.4 232.852 473.17L232.959 473.483L232.807 473.778C232.369 474.632 232.332 475.425 232.693 476.201C233.467 477.866 235.889 479.129 237.946 479.643L237.982 479.652L238.016 479.664C241.595 480.903 245.352 481.532 249.182 481.532" fill="white"/>
<path fill-rule="evenodd" clip-rule="evenodd" d="M256.068 450.893C255.82 450.643 255.716 450.315 255.947 449.93C256.841 448.796 258.693 449.572 259.846 449.834C260.281 449.474 260.713 449.113 261.129 448.732C260.985 447.84 262.063 447.247 262.506 446.559C262.941 446.053 263.35 445.477 263.872 445.053C265.143 444.067 266.905 444.734 268.381 444.689C269.517 443.252 270.687 441.86 271.768 440.376C270.522 438.295 270.435 435.856 270.848 433.537C251.739 426.33 235.198 412.683 214.53 409.529C213.82 409.411 213.421 408.553 213.598 407.923C215.04 404.503 235.757 413.327 238.854 414.926C247.988 419.273 256.543 424.692 265.42 429.473C267.272 430.451 269.308 430.976 271.332 431.484C274.442 421.337 279.704 412.035 283.738 402.251C283.476 401.8 283.253 401.327 283.064 400.84C283.198 406.22 277.934 406.145 277.207 401.041C277.507 403.701 275.483 409.4 272.561 405.661C271.876 404.721 271.633 403.519 271.517 402.306C271.367 403.145 271.197 403.979 271.007 404.811C270.258 406.46 268.211 404.456 267.735 403.596C267.461 403.547 267.204 403.422 267.016 403.27C261.851 403.983 255.767 403.942 251.976 399.889C245.548 402.34 238.432 400.144 231.931 399.165C218.7 397.653 205.417 395.348 192.067 395.524C186.107 395.868 179.076 396.825 175.306 401.88C170.47 409.167 173.204 419.008 178.538 425.316C191.37 441.466 235.417 448.488 256.068 450.893M255.707 456.711C255.473 456.648 255.238 456.591 255.004 456.537C251.259 459.637 233.619 467.686 234.961 472.494C235.435 473.092 236.57 473.228 237.288 473.421C238.538 473.757 239.8 474.048 241.074 474.278C245.192 475.023 249.458 475.153 253.571 474.303C255.084 474.075 256.45 473.433 257.828 472.813C262.281 470.865 267.186 468.714 271.618 466.782C277.248 464.564 287.124 460.191 283.062 452.813C279.214 457.115 274.33 456.74 271.869 451.392C271.021 449.769 270.28 447.581 268.287 446.925C267.236 446.218 265.892 446.071 265.014 446.858C264.95 446.76 264.893 446.623 264.862 446.501C263.872 447.902 263.018 449.377 261.857 450.658C262.256 450.679 266.404 453.731 265.18 453.733C263.707 452.978 262.244 452.35 260.653 451.944C259.501 453.096 258.233 454.168 256.92 455.159C258.196 455.996 259.341 457.021 260.263 458.134C260.343 458.232 260.245 458.359 260.126 458.306C258.695 457.672 257.224 457.115 255.707 456.711M236.72 477.5C251.047 483.897 266.213 476.774 278.431 469.18C281.25 467.615 284.959 465.396 284.389 461.711C282.312 464.732 278.889 466.452 275.603 467.943C270.082 470.423 264.525 472.825 258.99 475.275C258.467 476.998 255.968 477.065 254.457 477.447C247.732 478.744 240.503 478.099 234.175 475.514C234.541 476.592 235.739 477.087 236.72 477.5M293.88 452.592C294.234 452.637 294.588 452.678 294.942 452.718C294.905 452.252 295.188 451.787 295.642 451.642C295.438 450.655 295.362 449.635 295.471 448.634C294.88 450.154 292.969 449.692 291.756 449.254C290.022 448.786 288.299 448.282 286.586 447.745C285.911 448.992 285.194 450.221 284.315 451.351C287.517 451.634 290.69 452.197 293.88 452.592M295.289 447.811C295.374 447.99 295.496 448.179 295.498 448.393C295.585 447.654 295.754 446.923 296.01 446.223C295.77 446.752 295.529 447.282 295.289 447.811M297.31 443.846C298.886 441.805 301.798 440.136 304.489 440.705C304.662 440.742 304.666 441.019 304.489 441.053C300.873 441.541 297.698 444.392 297.573 448.078C297.287 449.746 298.455 451.384 298.062 452.985C298.14 452.99 298.218 452.994 298.295 453C298.324 453.107 298.349 453.202 298.383 453.285C297.993 453.35 297.878 453.975 298.339 454.086C298.611 454.152 298.897 454.186 299.187 454.201C300.661 453.805 302.216 453.714 303.626 453.129C305.02 452.517 304.671 450.796 305.163 449.604C305.524 448.229 305.939 446.86 306.462 445.541C306.5 445.435 306.644 445.459 306.656 445.566C307.025 448.197 307.013 450.874 306.924 453.526C307.408 453.575 307.889 453.629 308.371 453.689C308.34 452.948 310.576 443.921 311.754 446.238C311.161 448.785 311.089 451.445 311.026 454.066C314.524 454.639 317.971 455.492 321.324 456.654C323.688 457.366 326.498 459.472 328.792 457.568C330.569 456.107 331.168 453.559 331 451.391C328.69 438.562 310.441 437.063 299.668 438.012C298.651 440.345 297.614 442.671 296.564 444.992C296.782 444.592 297.031 444.209 297.31 443.846M334.052 451.141C334.25 448.228 333.757 444.601 331.585 442.43C326.616 438.254 319.657 436.94 313.447 435.428C310.555 434.86 307.622 434.483 304.678 434.295C303.634 434.213 302.307 434.449 301.569 433.6C301.189 434.494 300.805 435.387 300.419 436.28C312.782 434.67 338.576 440.263 331.353 457.098C332.882 455.451 333.896 453.446 334.052 451.141M272.63 441.511C272.061 442.924 271.365 444.269 270.456 445.5C271.49 446.172 272.333 447.165 272.927 448.233C276.738 458.142 280.813 452.834 285.875 447.517C281.591 445.91 275.916 444.706 272.63 441.511M336.052 449.125C345.96 439.395 347.883 423.188 344.223 410.447C343.897 405.723 342.235 401.221 340.746 396.748C336.005 383.179 329.769 370.126 322.291 357.801C313.012 360.334 303.75 362.935 294.45 365.385C293.169 365.662 291.887 366.208 290.572 366.288C290.102 366.585 289.63 366.913 289.141 367.202C289.853 370.669 289.197 374.21 289.03 377.698C288.879 380.445 289.178 383.134 289.544 385.852C289.953 389.805 291.638 402.663 288.262 405.017C287.117 405.566 286.094 403.94 285.601 404.387C285.157 404.079 284.742 403.678 284.404 403.236C283.1 407.427 280.969 411.315 279.653 415.51C277.902 421.675 272.152 431.655 273.429 437.535C274.416 441.167 278.737 441.95 281.856 443.137C285.459 444.383 289.103 445.527 292.807 446.456C294.615 442.642 296.343 438.792 298.039 434.928C305.789 417.098 312.653 398.896 318.787 380.478C318.902 380.069 320.312 375.64 320.571 376.875C320.592 376.748 320.753 376.42 320.814 376.701C319.773 381.026 318.718 385.349 317.576 389.65C320.381 389.26 323.397 389.108 325.964 390.474C326.097 390.544 326 390.718 325.869 390.697C322.828 390.173 319.896 391.162 316.976 391.873C312.876 405.748 307.585 419.272 301.984 432.626C303.716 432.077 305.727 432.684 307.535 432.728C313.228 433.312 318.857 434.551 324.236 436.477C330.997 438.656 335.778 441.498 336.052 449.125M341.507 347.87C343.171 346.088 344.479 343.813 344.227 341.398C343.227 340.073 342.896 338.344 342.313 336.812C340.037 330.4 337.923 323.94 335.445 317.598C330.175 319.209 324.989 321.142 320.098 323.681C319.198 324.138 318.307 324.611 317.428 325.102C316.506 325.615 315.501 326.507 314.396 326.252C315.604 327.952 318.091 329.72 318.511 331.685C318.602 332.307 318.159 332.884 317.478 332.745C306.818 340.271 295.811 347.639 285.735 356.023C278.19 361.96 272.398 366.776 269.81 376.41C268.066 382.65 268.061 389.173 268.317 395.589C268.367 396.836 268.368 398.113 268.47 399.369C268.318 400.308 268.606 402.22 269.668 402.254C269.644 402.482 269.568 402.692 269.448 402.877C269.482 402.922 269.517 402.965 269.553 403.008C269.606 402.752 269.657 402.496 269.706 402.24C270.533 398.599 270.644 394.375 270.506 390.498C270.448 389.387 272.163 389.413 272.258 390.498C272.517 393.429 272.775 396.359 273.033 399.288C273.342 401.187 272.854 403.67 274.381 405.113C275.934 403.687 275.42 400.874 275.344 399.034C275.223 396.032 275.092 393.032 274.98 390.03C274.945 389.079 276.529 388.834 276.709 389.801C277.219 392.558 277.77 395.307 278.363 398.048C278.721 399.108 278.967 403.863 280.756 403.037C281.822 402.314 281.053 398.071 281.194 396.666C281.127 393.885 281.088 391.108 280.883 388.334C280.799 387.215 282.633 386.976 282.884 388.069C283.292 389.838 283.683 391.607 284.037 393.388C284.813 396.389 284.531 400.459 287.336 402.454C288.435 394.656 286.854 386.913 286.632 379.143C286.765 376.625 287.2 374.133 287.583 371.646C288.008 368.895 288.255 365.901 287.262 363.249C287.533 362.061 288.601 365.274 288.701 365.541C289.505 363.967 291.462 363.845 293.011 363.355C296.452 362.247 299.978 361.412 303.459 360.428C312.693 357.879 321.938 355.369 331.185 352.865C334.879 351.849 338.768 350.646 341.507 347.87M249.04 389.347C250.314 382.482 250.279 375.526 249.735 368.586C249.136 357.822 248.555 347.056 247.933 336.293C245.235 355.773 242.359 375.23 240.159 394.771C240.002 396.131 240.026 397.571 239.336 398.784C243.152 399.292 247.219 399.804 250.929 398.514C249.301 395.716 248.727 392.53 249.04 389.347M229.76 340.994C226.876 359.456 228.521 378.242 225.723 396.683C229.605 397.116 233.457 397.756 237.299 398.46C236.878 396.182 237.675 393.829 237.813 391.535C239.9 375.173 242.203 358.821 245.255 342.601C246.004 338.719 246.761 334.854 247.628 330.993C247.497 328.655 247.382 326.318 247.307 323.979C243.071 321.331 238.294 319.618 233.354 318.754C232.02 326.147 230.686 333.535 229.76 340.994M263.154 282.978C263.323 282.691 263.484 282.398 263.638 282.1C263.116 282.12 262.608 282.138 262.095 282.223C262.118 283.044 262.072 283.873 262.063 284.701C262.319 284.095 262.822 283.542 263.154 282.978M176.029 398.674C188.35 389.768 208.588 395.442 222.861 396.358C225.583 378.62 224.472 360.594 227.008 342.827C229.344 325.078 231.807 307.082 237.674 290.076C240.095 283.501 244.284 281.548 251.18 281.601C254.68 281.465 258.381 280.908 261.782 280.987C262.527 280.999 263.307 281.097 263.98 281.396C264.926 279.277 265.439 277.001 265.699 274.708C265.715 274.563 265.901 274.536 265.957 274.675C266.757 276.672 266.842 278.851 266.407 280.941C266.092 282.439 264.218 288.332 262.041 286.026C261.868 290.862 262.937 296.637 267.702 299.146C276.03 302.756 287.54 299.469 292.364 291.809C293.296 290.279 294.1 288.65 295.132 287.18C287.94 285.156 283.903 276.59 285.597 270.066C286.644 275.14 288.554 280.809 293.308 283.65C310.622 283.612 325.017 291.451 333.151 306.548C334.743 308.741 336.214 311.019 337.563 313.337C338.288 314.887 340.414 317.044 338.61 318.541C340.693 324.069 342.542 329.673 344.496 335.244C345.032 337.1 346.259 339.048 346.014 340.999C346.279 342.201 346.267 343.624 345.66 344.78C345.085 346.841 343.793 349.614 341.651 350.489C339.834 352.138 337.536 353.275 335.139 354.131C341.531 370.737 343.965 388.646 346.13 406.191C348.253 421.541 349.349 440.212 336.048 451.305C335.79 454.479 333.896 458.523 330.15 458.558C327.556 461.09 324.394 459.7 321.507 458.462C316.633 456.668 311.522 455.673 306.443 455.119C305.898 455.542 305.012 455.472 304.527 454.979C301.45 454.274 297.186 457.129 296.564 454.542C292.597 454.16 288.674 453.443 284.711 453.025C286.381 455.179 286.261 458.355 285.003 460.682C288.206 466.947 280.744 470.574 276.181 473.145C270.021 476.69 263.588 480.055 256.543 481.524C250.35 482.82 243.861 482.427 237.885 480.358C234.745 479.573 230.359 476.997 232.222 473.368C229.86 466.462 246.447 459.306 251.326 455.848C249.332 455.601 249.259 451.486 254.446 453.85C255.073 453.434 255.689 453.004 256.299 452.566C235.318 450.169 195.249 443.573 180.065 429.317C171.723 421.986 166.91 407.158 176.029 398.674" fill="black"/>
</g>
<path fill-rule="evenodd" clip-rule="evenodd" d="M279.217 227.889C259.181 226.908 250.139 240.95 249.555 247.221C249.149 251.575 251.733 256.593 251.733 260.483C251.733 262.469 249.29 266.732 250.427 269.627C252.958 276.069 258.317 283.218 265.146 283.218C271.975 283.218 280.863 285.098 288.408 274.344C289.116 273.335 298.072 267.6 298.942 262.15C301.109 248.576 293.513 228.588 279.217 227.889Z" fill="white"/>
<path fill-rule="evenodd" clip-rule="evenodd" d="M280.161 219.15C279.445 218.334 278.235 218.008 277.16 218.071C275.599 218.163 274.242 219.122 272.688 219.193C271.06 219.268 269.488 218.706 267.856 218.967C266.855 219.127 265.863 219.589 265.222 220.368C263.001 219.735 260.59 220.573 259.176 222.404C257.431 222.134 255.533 223.284 254.999 224.958C252.782 225.029 250.689 226.801 250.442 229.022C249.556 229.255 248.787 229.863 248.315 230.667C247.767 231.598 247.675 232.667 247.775 233.717C246.732 234.247 246.201 235.387 246.063 236.592C245.11 237.3 244.696 238.572 244.89 239.773C244.16 240.183 243.784 241.135 243.788 241.985C243.792 242.779 244.003 243.481 243.706 244.247C243.441 244.929 243.345 245.497 243.491 246.212L243.506 246.281C243.532 246.398 243.554 246.509 243.573 246.62C243.376 246.792 243.209 247.008 243.083 247.259C242.626 248.178 242.694 249.225 243.043 250.157C242.89 250.75 242.91 251.376 243.135 251.947C242.713 252.552 242.49 253.296 242.556 254.067C242.629 254.93 243.025 255.703 243.626 256.275C243.466 257.454 243.947 258.728 244.818 259.558C244.695 260.264 244.801 261.004 245.189 261.673C245.466 262.15 245.838 262.505 246.268 262.753C246.254 263.147 246.307 263.55 246.439 263.953C246.622 264.513 246.931 265.029 247.339 265.445C247.095 266.992 248.026 268.708 249.664 269.142C249.802 269.179 249.933 269.196 250.059 269.198C250.221 270.686 250.577 272.154 251.127 273.547C252.525 277.096 255.069 280.198 258.385 282.134C260.026 283.09 261.869 283.746 263.75 284.019C265.103 284.217 266.405 284.168 267.764 284.034C269.47 283.864 271.183 283.61 272.84 283.173L273.107 283.103C273.794 282.92 274.519 282.708 275.114 282.339C275.78 281.926 276.127 281.289 276.28 280.539C276.365 280.122 276.1 279.673 275.641 279.664L275.611 279.664C275.511 279.666 275.411 279.662 275.31 279.656L275.234 279.651H275.23C275.225 279.65 275.222 279.65 275.217 279.65C275.172 279.643 275.129 279.63 275.085 279.623C274.58 279.539 274.138 279.623 273.664 279.78L273.604 279.8C272.806 280.073 272.014 280.327 271.189 280.515C270.337 280.709 269.474 280.863 268.608 280.984L268.522 280.994L268.495 280.998L268.482 281V281C268.479 281 268.477 281 268.474 281.001L268.219 281.033V281.033C268.018 281.056 267.817 281.077 267.616 281.098C267.246 281.135 266.876 281.164 266.506 281.185C260.117 281.543 254.752 276.537 253.132 270.534C252.545 268.362 252.507 266.194 252.68 264.026C252.736 263.868 252.769 263.693 252.767 263.501C252.767 263.401 252.762 263.302 252.755 263.202C252.971 261.105 253.345 259.006 253.579 256.901C253.852 254.442 254.005 251.968 253.949 249.493C253.921 248.271 253.79 247.06 253.619 245.85L253.557 245.415V245.415C254.333 245.264 255.055 244.897 255.63 244.367C256.878 245.084 258.492 245.147 259.724 244.39C261.104 245.252 263.032 245.33 264.422 244.488C265.262 245.084 266.32 245.342 267.359 245.115C267.826 245.014 268.291 244.793 268.689 244.488C268.973 244.538 269.261 244.557 269.547 244.542L269.606 244.575V244.575C270.265 244.921 270.996 245.149 271.748 245.124C272.305 245.105 272.879 244.996 273.41 244.789C273.977 245.13 274.598 245.362 275.262 245.446C276.232 245.567 277.278 245.354 278.085 244.806C279.559 245.642 281.372 245.771 282.963 245.209C283.289 245.758 283.74 246.232 284.268 246.597C284.173 246.934 284.143 247.294 284.176 247.639C284.229 248.208 284.372 248.719 284.607 249.177C284.36 249.688 284.285 250.316 284.424 250.947C284.621 251.846 285.146 252.628 285.827 253.238C285.887 254.673 286.678 256.018 287.964 256.766C288.029 256.803 288.094 256.834 288.159 256.862C288.216 256.939 288.284 257.007 288.361 257.065C289.18 257.817 290.474 257.757 291.5 257.332C291.52 257.333 291.54 257.335 291.56 257.335C291.926 257.344 292.176 257.202 292.324 256.993C292.473 257.001 292.621 257.017 292.771 257.044C293.315 257.146 293.913 257.34 294.406 257.593C295.686 258.248 296.278 259.406 296.455 260.798C296.648 262.317 296.209 263.864 295.028 264.892C294.455 265.392 293.721 265.705 292.976 265.837C292.152 265.983 291.272 265.623 290.664 266.327C290.542 266.467 290.459 266.662 290.525 266.85C290.731 267.437 291.071 267.662 291.602 267.743C290.834 268.65 290.046 269.526 289.174 270.34C288.23 271.223 287.254 272.079 286.403 273.052C285.503 274.083 284.69 275.175 284.126 276.425C283.803 277.143 283.544 277.884 283.265 278.619L283.215 278.748C282.904 279.529 282.49 280.282 282.969 281.098C283.159 281.419 283.59 281.73 283.987 281.679C285.104 281.537 285.478 280.785 285.822 279.806C286.081 279.067 286.279 278.306 286.558 277.573C286.61 277.438 286.667 277.303 286.726 277.17C287.37 277.348 288.079 277.207 288.653 276.841C289.267 277.112 289.948 277.247 290.605 277.236C291.485 277.22 292.289 276.977 292.98 276.538C293.035 276.524 293.09 276.51 293.145 276.494C294.196 276.895 295.427 276.823 296.379 276.174C296.996 275.753 297.417 275.192 297.657 274.567C298.453 274.551 299.241 274.27 299.812 273.708C300.336 273.192 300.642 272.525 300.733 271.833C301.418 271.698 302.061 271.368 302.565 270.813C302.986 270.348 303.242 269.757 303.328 269.144C304.163 268.907 304.916 268.364 305.327 267.607C305.71 266.903 305.765 266.139 305.578 265.444L305.627 265.375V265.375C306.487 264.927 307.143 264.193 307.21 263.145C307.229 262.847 307.197 262.549 307.116 262.266C307.145 261.951 307.126 261.635 307.043 261.33C308.2 260.21 308.619 258.412 307.991 256.925C309.121 255.714 309.42 253.8 308.591 252.363C309.16 251.679 309.452 250.806 309.403 249.875C309.342 248.712 308.807 247.696 308.166 246.755C308.642 246.231 308.895 245.501 308.877 244.796C308.85 243.773 308.304 242.893 307.621 242.164C308.217 240.364 307.551 238.412 306.088 237.272C306.384 236.787 306.493 236.185 306.397 235.576C306.228 234.512 305.425 233.787 304.559 233.213C304.741 232.626 304.693 231.993 304.405 231.387C304.02 230.577 303.294 230.064 302.537 229.63C302.341 227.835 300.327 226.302 298.637 227.229C299.056 225.893 297.849 224.451 296.461 224.298C295.782 222.248 293.438 220.956 291.331 221.465C290.254 220 288.249 219.435 286.546 220.064C284.674 218.637 282.352 218.425 280.161 219.15ZM293.495 259.401C292.18 259.33 291.194 260.398 290.501 261.376C289.851 262.293 291.519 263.262 292.005 262.251C292.18 261.891 292.378 261.509 292.644 261.193C292.688 261.255 292.728 261.32 292.767 261.386L292.806 261.452C292.836 261.501 292.866 261.551 292.891 261.602C292.888 261.612 292.928 261.733 292.929 261.738C293.038 262.066 293.274 262.276 293.597 262.389C294.013 262.534 294.407 262.222 294.541 261.856C294.753 261.272 294.259 260.763 293.745 260.531C294.25 260.45 294.747 260.621 295.112 261.008C295.162 261.062 295.247 261.018 295.249 260.951C295.292 260.034 294.328 259.446 293.495 259.401Z" fill="black"/>
<path fill-rule="evenodd" clip-rule="evenodd" d="M264.65 273.185C265.539 272.824 266.332 272.222 266.911 271.454C267.113 271.186 267.165 270.904 267.123 270.646C267.075 270.356 266.903 270.092 266.668 269.916C266.432 269.739 266.136 269.652 265.851 269.696C265.603 269.735 265.356 269.87 265.161 270.15L265.12 270.206C264.775 270.67 264.326 271.051 263.814 271.297C263.321 271.533 262.77 271.644 262.199 271.579C261.112 271.457 260.362 270.872 259.566 270.077C259.467 269.977 259.368 269.873 259.269 269.768C259.206 269.673 259.119 269.612 259.023 269.58C258.916 269.544 258.794 269.546 258.683 269.585C258.576 269.622 258.48 269.692 258.416 269.786C258.355 269.875 258.32 269.986 258.332 270.112C258.404 270.936 258.837 271.671 259.452 272.248C260.134 272.889 261.039 273.333 261.89 273.488C262.828 273.659 263.785 273.537 264.65 273.185V273.185ZM261.448 260.48C260.449 261.084 258.928 262.492 260.002 263.989C261.266 265.31 263.086 263.796 263.983 263.111C264.815 262.581 265.749 263.945 264.977 264.565C258.497 269.341 255.867 260.638 260.943 259.77C261.502 259.674 261.709 260.293 261.448 260.48ZM273.061 254.925C272.95 253.562 270.865 253.252 270.658 254.601C270.472 255.809 270.691 256.918 271.237 258.006C271.76 259.045 273.072 258.56 273.172 257.614C273.305 256.346 273.129 255.772 273.061 254.925ZM257.189 254.321C256.899 253.942 256.479 253.684 255.976 253.83C254.405 254.287 254.868 256.507 255.42 257.588C255.72 258.174 256.689 258.323 257.127 257.807C257.841 256.964 258.182 255.281 257.275 254.451C257.25 254.408 257.223 254.365 257.189 254.321ZM271.26 248.962L271.011 248.919C270.244 248.787 269.289 248.66 268.746 249.274C268.458 249.6 268.359 250.205 268.746 250.517C269.427 251.066 270.18 250.853 270.996 250.9C271.669 250.938 272.315 251.049 272.963 251.233C274.384 251.637 275.542 252.376 276.756 253.186C276.916 253.292 277.078 253.09 277.002 252.941C276.301 251.575 274.943 250.453 273.583 249.769C272.857 249.404 272.063 249.101 271.26 248.962ZM258.622 248.35L258.432 248.389C256.365 248.819 253.679 249.678 252.7 251.699C252.663 251.985 252.702 252.046 252.734 252.086L252.745 252.099C252.771 252.133 252.792 252.18 252.917 252.219C252.951 252.211 252.986 252.203 253.021 252.193C253.47 252.076 253.825 251.915 254.169 251.748L254.541 251.565C254.974 251.354 255.41 251.151 255.872 251.001C256.859 250.68 257.873 250.455 258.904 250.334C259.127 250.308 259.342 250.233 259.512 250.105C259.673 249.983 259.796 249.814 259.852 249.589C259.924 249.298 259.903 249.078 259.747 248.816C259.629 248.619 259.46 248.483 259.267 248.404C259.07 248.324 258.845 248.305 258.622 248.35Z" fill="black"/>
<g filter="url(#filter2_f_202_581)">
<circle cx="116.998" cy="285.743" r="36.9976" fill="#3F3AED" fill-opacity="0.8"/>
</g>
<path fill-rule="evenodd" clip-rule="evenodd" d="M124.224 284.922H130.416C130.815 284.922 131.14 284.596 131.14 284.195C131.14 283.794 130.815 283.468 130.416 283.468H124.224C123.825 283.468 123.5 283.794 123.5 284.195C123.5 284.596 123.825 284.922 124.224 284.922Z" fill="#1E1E1E"/>
<path fill-rule="evenodd" clip-rule="evenodd" d="M124.224 289.216H136.231C136.631 289.216 136.955 288.89 136.955 288.489C136.955 288.088 136.631 287.762 136.231 287.762H124.224C123.825 287.762 123.5 288.088 123.5 288.489C123.5 288.89 123.825 289.216 124.224 289.216Z" fill="#1E1E1E"/>
<path fill-rule="evenodd" clip-rule="evenodd" d="M131.235 293.509H136.231C136.631 293.509 136.955 293.184 136.955 292.782C136.955 292.382 136.631 292.056 136.231 292.056H131.235C130.836 292.056 130.511 292.382 130.511 292.782C130.511 293.184 130.836 293.509 131.235 293.509ZM124.224 293.509H128.271C128.67 293.509 128.995 293.184 128.995 292.782C128.995 292.382 128.67 292.056 128.271 292.056H124.224C123.825 292.056 123.5 292.382 123.5 292.782C123.5 293.184 123.825 293.509 124.224 293.509Z" fill="#1E1E1E"/>
<path fill-rule="evenodd" clip-rule="evenodd" d="M104.604 284.706L101.212 288.11C100.929 288.394 100.929 288.855 101.212 289.138L104.417 292.355C104.699 292.638 105.158 292.638 105.441 292.355C105.723 292.071 105.723 291.61 105.441 291.326L102.748 288.624L105.628 285.734C105.911 285.45 105.911 284.989 105.628 284.706C105.345 284.422 104.886 284.422 104.604 284.706H104.604Z" fill="#1E1E1E"/>
<path fill-rule="evenodd" clip-rule="evenodd" d="M114.956 285.734L117.836 288.624L115.143 291.326C114.861 291.61 114.861 292.071 115.143 292.355C115.426 292.638 115.885 292.638 116.168 292.355L119.372 289.138C119.655 288.854 119.655 288.394 119.372 288.11L115.98 284.706C115.698 284.422 115.239 284.422 114.956 284.706C114.674 284.99 114.674 285.45 114.956 285.734H114.956Z" fill="#1E1E1E"/>
<path fill-rule="evenodd" clip-rule="evenodd" d="M108.291 296.55L113.372 281.734C113.502 281.354 113.3 280.94 112.923 280.81C112.545 280.679 112.132 280.881 112.002 281.261L106.921 296.076C106.791 296.455 106.993 296.869 107.371 297C107.748 297.13 108.161 296.929 108.291 296.549L108.291 296.55Z" fill="#1E1E1E"/>
<path fill-rule="evenodd" clip-rule="evenodd" d="M140.743 270.583C140.743 269.379 139.771 268.403 138.571 268.403H97.0542C95.8546 268.403 94.8818 269.379 94.8818 270.583V300.774C94.8818 301.979 95.8546 302.955 97.0542 302.955H138.571C139.771 302.955 140.743 301.979 140.743 300.774V270.583ZM139.295 275.803V300.774C139.295 301.176 138.971 301.501 138.571 301.501H97.0542C96.6547 301.501 96.3301 301.176 96.3301 300.774V275.803H139.295ZM131.958 271.376H130.403C130.004 271.376 129.679 271.702 129.679 272.103C129.679 272.504 130.004 272.83 130.403 272.83H131.958C132.357 272.83 132.682 272.504 132.682 272.103C132.682 271.702 132.357 271.376 131.958 271.376ZM137.002 271.376H135.447C135.047 271.376 134.723 271.702 134.723 272.103C134.723 272.504 135.047 272.83 135.447 272.83H137.002C137.401 272.83 137.726 272.504 137.726 272.103C137.726 271.702 137.401 271.376 137.002 271.376Z" fill="#1E1E1E"/>
<g filter="url(#filter3_f_202_581)">
<circle cx="417.49" cy="246.038" r="41.5095" fill="#3F3AED" fill-opacity="0.8"/>
</g>
<path d="M409.31 231.382L415.857 210.627C416.053 210.009 416.709 209.667 417.324 209.864C417.939 210.06 418.279 210.721 418.083 211.339L411.536 232.092C411.34 232.711 410.684 233.052 410.069 232.856C409.455 232.659 409.115 231.999 409.31 231.381V231.382Z" fill="#1E1E1E"/>
<path d="M405.218 229.443L398.999 223.002V223.001C398.578 222.56 398.344 221.973 398.344 221.362C398.344 220.751 398.578 220.164 398.999 219.722L405.218 213.28C405.671 212.837 406.393 212.836 406.847 213.279C407.3 213.722 407.321 214.447 406.893 214.916L400.674 221.357L406.893 227.807C407.321 228.275 407.3 229.001 406.847 229.444C406.393 229.887 405.671 229.886 405.218 229.443V229.443Z" fill="#1E1E1E"/>
<path d="M420.498 227.807L426.717 221.366L420.498 214.916C420.071 214.448 420.091 213.722 420.545 213.279C420.998 212.836 421.72 212.837 422.173 213.28L428.392 219.722C428.813 220.164 429.047 220.751 429.047 221.362C429.047 221.973 428.813 222.561 428.392 223.002L422.173 229.443V229.443C421.72 229.887 420.998 229.887 420.545 229.444C420.091 229.001 420.071 228.276 420.498 227.807V227.807Z" fill="#1E1E1E"/>
<path d="M426.894 247.241C426.894 247.953 426.467 248.596 425.813 248.868C425.158 249.141 424.405 248.99 423.904 248.486C423.403 247.983 423.253 247.225 423.524 246.566C423.795 245.908 424.434 245.479 425.142 245.479C426.11 245.479 426.894 246.267 426.894 247.241L426.894 247.241Z" fill="#1E1E1E"/>
<path d="M426.894 254.48C426.894 255.193 426.467 255.836 425.813 256.108C425.158 256.381 424.405 256.23 423.904 255.726C423.403 255.222 423.253 254.464 423.524 253.806C423.795 253.148 424.434 252.718 425.142 252.718C426.11 252.718 426.894 253.507 426.894 254.48L426.894 254.48Z" fill="#1E1E1E"/>
<path d="M423.22 250.86C423.22 251.572 422.793 252.215 422.138 252.487C421.483 252.76 420.73 252.609 420.229 252.105C419.728 251.602 419.578 250.844 419.849 250.185C420.12 249.527 420.759 249.098 421.468 249.098C422.435 249.098 423.22 249.886 423.22 250.86L423.22 250.86Z" fill="#1E1E1E"/>
<path d="M430.573 250.86C430.573 251.572 430.146 252.215 429.492 252.487C428.837 252.76 428.083 252.609 427.582 252.105C427.081 251.602 426.932 250.844 427.203 250.185C427.474 249.527 428.113 249.098 428.821 249.098C429.789 249.098 430.573 249.886 430.573 250.86L430.573 250.86Z" fill="#1E1E1E"/>
<path d="M406.542 252.034H403.419V255.088C403.419 255.737 402.896 256.263 402.251 256.263C401.606 256.263 401.083 255.737 401.083 255.088V252.034H397.955C397.31 252.034 396.787 251.508 396.787 250.86C396.787 250.21 397.31 249.685 397.955 249.685H401.083V246.631C401.083 245.982 401.606 245.457 402.251 245.457C402.896 245.457 403.419 245.982 403.419 246.631V249.685H406.544C407.189 249.686 407.711 250.212 407.711 250.861C407.71 251.509 407.187 252.035 406.542 252.034H406.542Z" fill="#1E1E1E"/>
<path d="M439.615 274.031C437.279 275.063 433.567 274.778 423.731 264.812C421.034 262.406 417.096 262.88 413.698 262.815C410.282 262.884 406.363 262.41 403.612 264.866C399.326 269.212 392.298 276.04 387.78 274.034C383.132 271.978 383.616 263.379 385.62 256.017H385.621C385.799 255.403 386.435 255.045 387.049 255.214C387.664 255.383 388.031 256.016 387.874 256.637C385.747 264.453 386.095 270.724 388.721 271.885C390.887 272.84 395.351 269.904 402.009 263.16C405.521 260.014 410.235 260.536 413.697 260.464C417.111 260.549 421.856 260.001 425.333 263.106C432.044 269.901 436.514 272.831 438.674 271.881C442.135 270.354 441.45 259.952 437.24 250.065C434.934 244.648 430.699 238.609 426.838 238.146C422.18 237.575 420.882 241.677 415.662 241.677H411.731C406.511 241.677 405.222 237.581 400.555 238.146C396.76 238.601 392.832 244.29 390.621 249.022C390.346 249.609 389.65 249.861 389.066 249.585C388.482 249.309 388.231 248.609 388.505 248.021C389.76 245.338 394.315 236.528 400.278 235.814C405.949 235.139 407.378 239.328 411.731 239.328H415.662C419.983 239.328 421.472 235.142 427.114 235.814C433.873 236.623 438.842 247.862 439.391 249.139C443.79 259.477 445.079 271.614 439.615 274.031L439.615 274.031Z" fill="#1E1E1E"/>
<path d="M387.9 251.317C388.373 251.317 388.799 251.604 388.98 252.043C389.16 252.481 389.06 252.987 388.726 253.323C388.392 253.659 387.89 253.759 387.454 253.577C387.017 253.395 386.732 252.967 386.732 252.492C386.732 251.843 387.255 251.317 387.9 251.317Z" fill="#1E1E1E"/>
<path d="M388.36 268.261C388.34 267.376 388.368 266.426 388.442 265.442C388.491 264.793 389.054 264.308 389.699 264.358C390.344 264.407 390.827 264.973 390.777 265.622C390.709 266.531 390.683 267.402 390.7 268.206C390.715 268.856 390.204 269.395 389.558 269.41C388.911 269.426 388.375 268.911 388.36 268.261L388.36 268.261Z" fill="#1E1E1E"/>
<path d="M389.033 261.039C389.786 256.92 391.114 252.929 392.976 249.183C393.273 248.607 393.978 248.381 394.551 248.68C395.123 248.978 395.347 249.687 395.05 250.263C393.293 253.807 392.04 257.582 391.329 261.477C391.208 262.114 390.597 262.533 389.963 262.412C389.329 262.291 388.913 261.676 389.033 261.039L389.033 261.039Z" fill="#1E1E1E"/>
<defs>
<filter id="filter0_f_202_581" x="165.135" y="0" width="243.02" height="243.019" filterUnits="userSpaceOnUse" color-interpolation-filters="sRGB">
<feFlood flood-opacity="0" result="BackgroundImageFix"/>
<feBlend mode="normal" in="SourceGraphic" in2="BackgroundImageFix" result="shape"/>
<feGaussianBlur stdDeviation="40" result="effect1_foregroundBlur_202_581"/>
</filter>
<filter id="filter1_d_202_581" x="78.4189" y="191.976" width="407.642" height="415.294" filterUnits="userSpaceOnUse" color-interpolation-filters="sRGB">
<feFlood flood-opacity="0" result="BackgroundImageFix"/>
<feColorMatrix in="SourceAlpha" type="matrix" values="0 0 0 0 0 0 0 0 0 0 0 0 0 0 0 0 0 0 127 0" result="hardAlpha"/>
<feOffset dx="25" dy="25"/>
<feGaussianBlur stdDeviation="50"/>
<feComposite in2="hardAlpha" operator="out"/>
<feColorMatrix type="matrix" values="0 0 0 0 0 0 0 0 0 0 0 0 0 0 0 0 0 0 0.25 0"/>
<feBlend mode="normal" in2="BackgroundImageFix" result="effect1_dropShadow_202_581"/>
<feBlend mode="normal" in="SourceGraphic" in2="effect1_dropShadow_202_581" result="shape"/>
</filter>
<filter id="filter2_f_202_581" x="0" y="168.745" width="233.995" height="233.995" filterUnits="userSpaceOnUse" color-interpolation-filters="sRGB">
<feFlood flood-opacity="0" result="BackgroundImageFix"/>
<feBlend mode="normal" in="SourceGraphic" in2="BackgroundImageFix" result="shape"/>
<feGaussianBlur stdDeviation="40" result="effect1_foregroundBlur_202_581"/>
</filter>
<filter id="filter3_f_202_581" x="295.98" y="124.529" width="243.02" height="243.019" filterUnits="userSpaceOnUse" color-interpolation-filters="sRGB">
<feFlood flood-opacity="0" result="BackgroundImageFix"/>
<feBlend mode="normal" in="SourceGraphic" in2="BackgroundImageFix" result="shape"/>
<feGaussianBlur stdDeviation="40" result="effect1_foregroundBlur_202_581"/>
</filter>
<clipPath id="clip0_202_581">
<rect width="73.9952" height="75.8" fill="white" transform="translate(246.037 81.8048)"/>
</clipPath>
</defs>
</svg>
