<svg width="278" height="278" viewBox="0 0 278 278" fill="none" xmlns="http://www.w3.org/2000/svg">
<g filter="url(#filter0_f_221_450)">
<circle cx="138.567" cy="138.567" r="58.5674" fill="#EDDB3A" fill-opacity="0.8"/>
</g>
<g clip-path="url(#clip0_221_450)">
<path d="M133.341 183.46C125.054 183.46 120.678 181.128 119.939 169.305C119.939 168.446 119.829 167.641 119.789 166.85C119.474 160.945 119.282 157.386 116.055 152.858L115.275 151.767C111.323 146.312 107.59 141.021 107.59 133.671L107.591 133.672C107.608 126.733 110.383 120.085 115.307 115.183C120.231 110.28 126.903 107.524 133.861 107.517C140.824 107.527 147.498 110.291 152.42 115.202C157.342 120.113 160.111 126.77 160.118 133.713C160.118 141.063 156.384 146.286 152.446 151.809L151.666 152.9C148.439 157.427 148.247 160.987 147.919 166.891C147.919 167.682 147.837 168.487 147.782 169.346C147.03 181.442 142.475 183.583 133.833 183.488L133.341 183.46ZM133.861 111.566C127.977 111.573 122.336 113.91 118.179 118.063C114.023 122.215 111.689 127.845 111.693 133.712C111.693 139.754 114.907 144.24 118.613 149.436L119.406 150.527C123.303 155.982 123.509 160.495 123.891 166.673C123.891 167.45 123.973 168.254 124.028 169.1C124.658 179.082 127.502 179.478 133.902 179.396C140.302 179.315 143.133 179.083 143.762 169.1C143.762 168.254 143.858 167.45 143.899 166.673C144.227 160.495 144.473 156.022 148.385 150.527L149.164 149.436C152.829 144.24 156.083 139.822 156.083 133.712C156.079 127.853 153.744 122.234 149.591 118.09C145.438 113.945 139.804 111.614 133.929 111.607L133.861 111.566Z" fill="#1E1E1E"/>
<path d="M139.768 167.778H127.802C126.669 167.778 125.751 166.862 125.751 165.732C125.751 164.603 126.669 163.686 127.802 163.686H139.768C140.901 163.686 141.82 164.602 141.82 165.732C141.82 166.862 140.901 167.778 139.768 167.778V167.778Z" fill="#1E1E1E"/>
<path d="M139.154 175.061H128.747C127.613 175.061 126.695 174.145 126.695 173.015C126.695 171.886 127.613 170.969 128.747 170.969H139.154C140.287 170.969 141.205 171.886 141.205 173.015C141.205 174.145 140.287 175.061 139.154 175.061V175.061Z" fill="#1E1E1E"/>
<path d="M133.97 97.2067C132.838 97.2067 131.919 96.2905 131.919 95.1609V84.5922C131.919 83.4626 132.838 82.5464 133.97 82.5464C135.103 82.5464 136.022 83.4626 136.022 84.5922V95.1609C136.022 96.2904 135.103 97.2067 133.97 97.2067Z" fill="#1E1E1E"/>
<path d="M133.889 158.668C132.757 158.668 131.838 157.753 131.838 156.623V147.24C131.838 146.111 132.757 145.195 133.889 145.195C135.022 145.195 135.941 146.111 135.941 147.24V156.623C135.941 157.753 135.022 158.668 133.889 158.668Z" fill="#1E1E1E"/>
<path d="M131.154 148.672C130.342 148.685 129.6 148.219 129.26 147.485C128.919 146.75 129.045 145.885 129.581 145.277L133.178 141.35L125.643 141.349L134.572 131.299C135.328 130.451 136.629 130.375 137.478 131.128C138.328 131.882 138.405 133.179 137.649 134.026L134.764 137.231H142.518L132.671 148.004C132.286 148.435 131.733 148.678 131.154 148.672H131.154Z" fill="#1E1E1E"/>
<path d="M160.173 106.943C159.381 106.943 158.659 106.488 158.32 105.773C157.981 105.059 158.085 104.214 158.587 103.603L164.33 96.6071L164.331 96.6064C164.669 96.1691 165.171 95.8867 165.722 95.824C166.273 95.7613 166.826 95.9233 167.254 96.274C167.683 96.624 167.952 97.1324 167.999 97.6831C168.045 98.2338 167.867 98.7803 167.503 99.1978L161.773 106.193C161.378 106.669 160.792 106.943 160.173 106.943L160.173 106.943Z" fill="#1E1E1E"/>
<path d="M171.523 131.531C170.979 131.567 170.443 131.386 170.032 131.029C169.622 130.67 169.371 130.164 169.335 129.622C169.259 128.492 170.116 127.515 171.249 127.44L179.824 126.294C180.957 126.143 181.998 126.938 182.149 128.067C182.3 129.197 181.504 130.235 180.371 130.385L171.796 131.545L171.523 131.531Z" fill="#1E1E1E"/>
<path d="M106.333 106.943C105.717 106.947 105.134 106.671 104.747 106.193L99.003 99.1978C98.6393 98.7803 98.4607 98.2338 98.5073 97.6831C98.5539 97.1324 98.8229 96.624 99.2516 96.274C99.6803 95.9233 100.233 95.7613 100.784 95.824C101.335 95.8867 101.837 96.1691 102.175 96.6064L107.919 103.602L107.919 103.603C108.421 104.214 108.525 105.059 108.186 105.773C107.847 106.488 107.125 106.943 106.333 106.943L106.333 106.943Z" fill="#1E1E1E"/>
<path d="M94.9409 131.531H94.6676L84.8623 130.167C83.7296 130.017 82.9337 128.979 83.0848 127.849C83.2352 126.72 84.2761 125.926 85.4095 126.076L95.2149 127.44H95.2142C96.3476 127.515 97.2042 128.492 97.1294 129.622C97.0538 130.752 96.0737 131.606 94.941 131.532L94.9409 131.531Z" fill="#1E1E1E"/>
</g>
<defs>
<filter id="filter0_f_221_450" x="0" y="0" width="277.135" height="277.135" filterUnits="userSpaceOnUse" color-interpolation-filters="sRGB">
<feFlood flood-opacity="0" result="BackgroundImageFix"/>
<feBlend mode="normal" in="SourceGraphic" in2="BackgroundImageFix" result="shape"/>
<feGaussianBlur stdDeviation="40" result="effect1_foregroundBlur_221_450"/>
</filter>
<clipPath id="clip0_221_450">
<rect width="104.403" height="106.949" fill="white" transform="translate(81.2734 82.5465)"/>
</clipPath>
</defs>
</svg>
