<svg width="22" height="22" viewBox="0 0 22 22" fill="none" xmlns="http://www.w3.org/2000/svg">
<path d="M17.6571 21H4.34292C2.50308 21 1 19.4969 1 17.6571V4.34292C1 2.50308 2.50308 1 4.34292 1H17.6571C19.4969 1 21 2.50308 21 4.34292V17.6571C21 19.5051 19.5051 21 17.6571 21Z" stroke="#6B6B6B" stroke-width="1.5"/>
<path d="M7.3732 14.6336C8.3424 15.6028 9.63192 16.1367 11.0036 16.1367C12.3752 16.1367 13.6566 15.6028 14.634 14.6336C15.6032 13.6644 16.1371 12.3749 16.1371 11.0033C16.1371 9.63159 15.6032 8.34206 14.634 7.37286C13.6648 6.40366 12.3752 5.86978 11.0036 5.86978C9.63192 5.86978 8.3424 6.40366 7.3732 7.37286C6.404 8.34206 5.87012 9.63159 5.87012 11.0033C5.87012 12.3749 6.404 13.6644 7.3732 14.6336Z" stroke="#6B6B6B" stroke-width="1.5"/>
<path d="M17.139 5.70241C17.6833 5.70241 18.1246 5.26112 18.1246 4.71676C18.1246 4.1724 17.6833 3.73111 17.139 3.73111C16.5946 3.73111 16.1533 4.1724 16.1533 4.71676C16.1533 5.26112 16.5946 5.70241 17.139 5.70241Z" stroke="#6B6B6B" stroke-width="1.5"/>
</svg>
