<svg width="22" height="22" viewBox="0 0 22 22" fill="none" xmlns="http://www.w3.org/2000/svg">
<path d="M5.51594 7.577H1.33691V20.9036H5.51594V7.577Z" stroke="#6B6B6B" stroke-width="1.5"/>
<path d="M16.8208 7.28825C16.6667 7.26899 16.503 7.25936 16.3393 7.24973C13.9995 7.15344 12.6803 8.54003 12.2181 9.13703C12.0929 9.30072 12.0351 9.39701 12.0351 9.39701V7.61564H8.03906V20.9422H12.0351H12.2181C12.2181 19.5845 12.2181 18.2365 12.2181 16.8788C12.2181 16.147 12.2181 15.4152 12.2181 14.6833C12.2181 13.7782 12.1507 12.8153 12.6033 11.9872C12.9884 11.2939 13.6817 10.9473 14.4617 10.9473C16.7726 10.9473 16.8208 13.0368 16.8208 13.2294C16.8208 13.239 16.8208 13.2486 16.8208 13.2486V21H20.9998V12.305C20.9998 9.32961 19.488 7.57712 16.8208 7.28825Z" stroke="#6B6B6B" stroke-width="1.5"/>
<path d="M3.42652 5.85303C4.76666 5.85303 5.85306 4.76664 5.85306 3.42652C5.85306 2.08639 4.76666 1 3.42652 1C2.08639 1 1 2.08639 1 3.42652C1 4.76664 2.08639 5.85303 3.42652 5.85303Z" stroke="#6B6B6B" stroke-width="1.5"/>
</svg>
