<svg width="763" height="109" viewBox="0 0 763 109" fill="none" xmlns="http://www.w3.org/2000/svg">
<path opacity="0.2" d="M41.8188 0.799995V85.4C41.8188 91.8 43.2854 96.1333 46.2188 98.4C49.1521 100.667 54.0854 101.8 61.0188 101.8V106C58.3521 105.867 54.4188 105.733 49.2188 105.6C44.1521 105.333 38.8854 105.2 33.4188 105.2C27.2854 105.2 21.3521 105.333 15.6188 105.6C10.0188 105.733 5.68542 105.867 2.61875 106V101.8C9.28542 101.8 14.4854 100.733 18.2188 98.6C21.9521 96.3333 23.8188 91.9333 23.8188 85.4V37C23.8188 30.6 23.1521 25.8667 21.8188 22.8C20.4854 19.7333 18.0854 17.7333 14.6188 16.8C11.2854 15.8667 6.61875 15.4 0.61875 15.4V11C10.2188 10.7333 18.2188 9.86666 24.6188 8.39999C31.0188 6.93333 36.7521 4.4 41.8188 0.799995ZM201.047 46.4V58H128.847V46.4H201.047ZM319.456 0.199991C327.99 0.199991 335.656 2.06666 342.456 5.79999C349.256 9.53333 354.656 15.4 358.656 23.4C362.79 31.4 364.856 41.8 364.856 54.6C364.856 67.4 362.79 77.8 358.656 85.8C354.656 93.6667 349.256 99.4667 342.456 103.2C335.656 106.933 327.99 108.8 319.456 108.8C311.056 108.8 303.39 106.933 296.456 103.2C289.656 99.4667 284.19 93.6667 280.056 85.8C276.056 77.8 274.056 67.4 274.056 54.6C274.056 41.8 276.056 31.4 280.056 23.4C284.19 15.4 289.656 9.53333 296.456 5.79999C303.39 2.06666 311.056 0.199991 319.456 0.199991ZM319.456 4.2C311.856 4.2 305.59 8.13333 300.656 16C295.856 23.8667 293.456 36.7333 293.456 54.6C293.456 72.4667 295.856 85.3333 300.656 93.2C305.59 100.933 311.856 104.8 319.456 104.8C327.056 104.8 333.256 100.933 338.056 93.2C342.99 85.3333 345.456 72.4667 345.456 54.6C345.456 36.7333 342.99 23.8667 338.056 16C333.256 8.13333 327.056 4.2 319.456 4.2ZM447.227 0.199991C452.293 0.199991 456.493 0.866657 459.827 2.19999C463.293 3.53333 466.16 5.4 468.427 7.79999C470.96 10.4667 472.76 13.8 473.827 17.8C474.893 21.8 475.427 27.2 475.427 34V87.4C475.427 93 476.56 96.8 478.827 98.8C481.227 100.8 485.16 101.8 490.627 101.8V106C488.36 105.867 484.893 105.733 480.227 105.6C475.56 105.333 471.027 105.2 466.627 105.2C462.227 105.2 457.893 105.333 453.627 105.6C449.493 105.733 446.36 105.867 444.227 106V101.8C449.027 101.8 452.427 100.8 454.427 98.8C456.427 96.8 457.427 93 457.427 87.4V29.6C457.427 25.4667 457.093 21.6667 456.427 18.2C455.76 14.7333 454.227 11.9333 451.827 9.79999C449.56 7.66666 446.027 6.6 441.227 6.6C435.627 6.6 430.693 8.2 426.427 11.4C422.293 14.6 419.027 19 416.627 24.6C414.36 30.0667 413.227 36.2 413.227 43V87.4C413.227 93 414.227 96.8 416.227 98.8C418.227 100.8 421.627 101.8 426.427 101.8V106C424.293 105.867 421.093 105.733 416.827 105.6C412.693 105.333 408.427 105.2 404.027 105.2C399.627 105.2 395.093 105.333 390.427 105.6C385.76 105.733 382.293 105.867 380.027 106V101.8C385.493 101.8 389.36 100.8 391.627 98.8C394.027 96.8 395.227 93 395.227 87.4V24.8C395.227 18.8 394.16 14.4 392.027 11.6C389.893 8.66666 385.893 7.2 380.027 7.2V2.99999C384.293 3.39999 388.427 3.6 392.427 3.6C396.293 3.6 399.96 3.39999 403.427 2.99999C407.027 2.46666 410.293 1.73332 413.227 0.799995V24.4C416.693 15.3333 421.493 9.06666 427.627 5.59999C433.893 1.99999 440.427 0.199991 447.227 0.199991ZM629.367 46.4V58H557.167V46.4H629.367ZM743.577 0.799995V85.4C743.577 91.8 745.043 96.1333 747.977 98.4C750.91 100.667 755.843 101.8 762.777 101.8V106C760.11 105.867 756.177 105.733 750.977 105.6C745.91 105.333 740.643 105.2 735.177 105.2C729.043 105.2 723.11 105.333 717.377 105.6C711.777 105.733 707.443 105.867 704.377 106V101.8C711.043 101.8 716.243 100.733 719.977 98.6C723.71 96.3333 725.577 91.9333 725.577 85.4V37C725.577 30.6 724.91 25.8667 723.577 22.8C722.243 19.7333 719.843 17.7333 716.377 16.8C713.043 15.8667 708.377 15.4 702.377 15.4V11C711.977 10.7333 719.977 9.86666 726.377 8.39999C732.777 6.93333 738.51 4.4 743.577 0.799995Z" fill="#6C68E3" fill-opacity="0.5"/>
</svg>
