<svg width="28" height="29" viewBox="0 0 28 29" fill="none" xmlns="http://www.w3.org/2000/svg">
<path d="M23.3327 13.638C23.3327 11.1627 22.3494 8.7887 20.599 7.03836C18.8487 5.28802 16.4747 4.30469 13.9993 4.30469C11.524 4.30469 9.15003 5.28802 7.39969 7.03836C5.64935 8.7887 4.66602 11.1627 4.66602 13.638" stroke="#6B6B6B" stroke-width="1.3" stroke-linecap="round" stroke-linejoin="round"/>
<path d="M23.333 21.8047V22.388C23.333 23.0068 23.0872 23.6003 22.6496 24.0379C22.212 24.4755 21.6185 24.7213 20.9997 24.7213H16.9163M2.33301 18.8157V16.627C2.33309 16.1067 2.50708 15.6013 2.82733 15.1912C3.14758 14.7811 3.59572 14.4899 4.10051 14.3637L6.13051 13.855C6.23366 13.8293 6.34131 13.8275 6.44529 13.8496C6.54926 13.8717 6.64684 13.9172 6.73061 13.9826C6.81438 14.0481 6.88215 14.1317 6.92877 14.2273C6.97539 14.3228 6.99964 14.4277 6.99967 14.534V20.9075C6.99986 21.014 6.97573 21.1192 6.92912 21.215C6.88251 21.3108 6.81465 21.3947 6.73071 21.4603C6.64678 21.5259 6.54898 21.5714 6.44476 21.5935C6.34055 21.6156 6.23267 21.6136 6.12934 21.5877L4.09934 21.0802C3.59477 20.9538 3.14689 20.6624 2.82687 20.2523C2.50685 19.8423 2.33302 19.337 2.33301 18.8168V18.8157ZM25.6663 18.8157V16.627C25.6663 16.1067 25.4923 15.6013 25.172 15.1912C24.8518 14.7811 24.4036 14.4899 23.8988 14.3637L21.8688 13.855C21.7657 13.8293 21.658 13.8275 21.5541 13.8496C21.4501 13.8717 21.3525 13.9172 21.2687 13.9826C21.185 14.0481 21.1172 14.1317 21.0706 14.2273C21.024 14.3228 20.9997 14.4277 20.9997 14.534V20.9075C20.9995 21.0139 21.0237 21.1189 21.0702 21.2146C21.1167 21.3103 21.1845 21.3941 21.2683 21.4597C21.3521 21.5253 21.4497 21.5709 21.5538 21.5931C21.6578 21.6152 21.7656 21.6134 21.8688 21.5877L23.8988 21.0802C24.4036 20.954 24.8518 20.6627 25.172 20.2526C25.4923 19.8425 25.6663 19.3372 25.6663 18.8168V18.8157Z" stroke="#6B6B6B" stroke-width="1.3"/>
<path d="M15.75 26.4713H12.25C11.7859 26.4713 11.3408 26.287 11.0126 25.9588C10.6844 25.6306 10.5 25.1855 10.5 24.7213C10.5 24.2572 10.6844 23.8121 11.0126 23.4839C11.3408 23.1557 11.7859 22.9713 12.25 22.9713H15.75C16.2141 22.9713 16.6592 23.1557 16.9874 23.4839C17.3156 23.8121 17.5 24.2572 17.5 24.7213C17.5 25.1855 17.3156 25.6306 16.9874 25.9588C16.6592 26.287 16.2141 26.4713 15.75 26.4713Z" stroke="#6B6B6B" stroke-width="1.3"/>
</svg>
